HIERARCHY
ROOT Hips
{
	OFFSET 0.000000 0.000000 0.000000 
	CHANNELS 6 Xposition Yposition Zposition Yrotation Xrotation Zrotation
	JOINT Spine
	{
		OFFSET 0.000000 0.072080 0.012321 
		CHANNELS 3 Xrotation Yrotation Zrotation
		JOINT Spine1
		{
			OFFSET 0.000000 0.126984 -0.001294 
			CHANNELS 3 Xrotation Yrotation Zrotation
			JOINT Spine2
			{
				OFFSET 0.000000 0.106559 -0.010096 
				CHANNELS 3 Xrotation Yrotation Zrotation
				JOINT Neck
				{
					OFFSET 0.000000 0.108417 -0.034017 
					CHANNELS 3 Xrotation Yrotation Zrotation
					JOINT Neck1
					{
						OFFSET 0.000000 0.033906 0.007241 
						CHANNELS 3 Xrotation Yrotation Zrotation
						JOINT Head
						{
							OFFSET 0.000000 0.031458 0.006707 
							CHANNELS 3 Xrotation Yrotation Zrotation
							End Site
							{
								OFFSET 0.000000 0.179920 0.000962 
							}
						}
					}
				}
				JOINT LeftShoulder
				{
					OFFSET 0.048002 0.079586 -0.029634 
					CHANNELS 3 Zrotation Xrotation Yrotation
					JOINT LeftArm
					{
						OFFSET 0.096243 -0.008695 -0.014012 
						CHANNELS 3 Zrotation Xrotation Yrotation
						JOINT LeftForeArm
						{
							OFFSET 0.216305 0.000000 0.000000 
							CHANNELS 3 Xrotation Zrotation Yrotation
							JOINT LeftHand
							{
								OFFSET 0.217764 0.000000 0.000000 
								CHANNELS 3 Zrotation Yrotation Xrotation
								JOINT LeftHandThumb1
								{
									OFFSET 0.018582 -0.007835 0.020476 
									CHANNELS 3 Zrotation Xrotation Yrotation
									JOINT LeftHandThumb2
									{
										OFFSET 0.026269 -0.007835 0.022186 
										CHANNELS 3 Zrotation Xrotation Yrotation
										JOINT LeftHandThumb3
										{
											OFFSET 0.035170 -0.010504 0.017018 
											CHANNELS 3 Zrotation Xrotation Yrotation
											End Site
											{
												OFFSET 0.020312 -0.007813 0.007813 
											}
										}
									}
								}
								JOINT LeftHandMiddle1
								{
									OFFSET 0.081749 0.004803 0.003358 
									CHANNELS 3 Zrotation Xrotation Yrotation
									JOINT LeftHandMiddle2
									{
										OFFSET 0.045251 0.000000 0.000000 
										CHANNELS 3 Zrotation Xrotation Yrotation
										JOINT LeftHandMiddle3
										{
											OFFSET 0.029009 0.000000 0.000000 
											CHANNELS 3 Zrotation Xrotation Yrotation
											End Site
											{
												OFFSET 0.017969 0.000000 0.000000 
											}
										}
									}
								}
								JOINT LeftHandIndex1
								{
									OFFSET 0.081207 0.004803 0.021137 
									CHANNELS 3 Zrotation Xrotation Yrotation
									JOINT LeftHandIndex2
									{
										OFFSET 0.043354 0.000000 0.000000 
										CHANNELS 3 Zrotation Xrotation Yrotation
										JOINT LeftHandIndex3
										{
											OFFSET 0.026493 0.000000 0.000000 
											CHANNELS 3 Zrotation Xrotation Yrotation
											End Site
											{
												OFFSET 0.019531 0.000000 0.000000 
											}
										}
									}
								}
								JOINT LeftHandRing1
								{
									OFFSET 0.080666 0.002509 -0.014652 
									CHANNELS 3 Zrotation Xrotation Yrotation
									JOINT LeftHandRing2
									{
										OFFSET 0.042541 0.000000 0.000000 
										CHANNELS 3 Zrotation Xrotation Yrotation
										JOINT LeftHandRing3
										{
											OFFSET 0.029009 0.000000 0.000000 
											CHANNELS 3 Zrotation Xrotation Yrotation
											End Site
											{
												OFFSET 0.015625 0.000000 0.000000 
											}
										}
									}
								}
								JOINT LeftHandPinky1
								{
									OFFSET 0.078227 -0.000612 -0.030993 
									CHANNELS 3 Zrotation Xrotation Yrotation
									JOINT LeftHandPinky2
									{
										OFFSET 0.028721 0.000000 0.000000 
										CHANNELS 3 Zrotation Xrotation Yrotation
										JOINT LeftHandPinky3
										{
											OFFSET 0.021963 0.000000 0.000000 
											CHANNELS 3 Zrotation Xrotation Yrotation
											End Site
											{
												OFFSET 0.022656 0.000000 0.000000 
											}
										}
									}
								}
							}
						}
					}
				}
				JOINT RightShoulder
				{
					OFFSET -0.047970 0.079586 -0.029634 
					CHANNELS 3 Zrotation Xrotation Yrotation
					JOINT RightArm
					{
						OFFSET -0.096274 -0.008695 -0.014012 
						CHANNELS 3 Zrotation Xrotation Yrotation
						JOINT RightForeArm
						{
							OFFSET -0.216305 0.000000 0.000000 
							CHANNELS 3 Xrotation Zrotation Yrotation
							JOINT RightHand
							{
								OFFSET -0.217764 0.000000 0.000000 
								CHANNELS 3 Zrotation Yrotation Xrotation
								JOINT RightHandThumb1
								{
									OFFSET -0.019670 -0.007318 0.019638 
									CHANNELS 3 Zrotation Xrotation Yrotation
									JOINT RightHandThumb2
									{
										OFFSET -0.025498 -0.008492 0.023179 
										CHANNELS 3 Zrotation Xrotation Yrotation
										JOINT RightHandThumb3
										{
											OFFSET -0.034504 -0.010705 0.016680 
											CHANNELS 3 Zrotation Xrotation Yrotation
											End Site
											{
												OFFSET -0.020312 -0.007813 0.007813 
											}
										}
									}
								}
								JOINT RightHandIndex1
								{
									OFFSET -0.081770 0.003825 0.021187 
									CHANNELS 3 Zrotation Xrotation Yrotation
									JOINT RightHandIndex2
									{
										OFFSET -0.042006 0.000000 0.000000 
										CHANNELS 3 Zrotation Xrotation Yrotation
										JOINT RightHandIndex3
										{
											OFFSET -0.026449 0.000000 0.000000 
											CHANNELS 3 Zrotation Xrotation Yrotation
											End Site
											{
												OFFSET -0.020312 0.000000 0.000000 
											}
										}
									}
								}
								JOINT RightHandMiddle1
								{
									OFFSET -0.084059 0.003825 0.003342 
									CHANNELS 3 Zrotation Xrotation Yrotation
									JOINT RightHandMiddle2
									{
										OFFSET -0.043881 0.000000 0.000000 
										CHANNELS 3 Zrotation Xrotation Yrotation
										JOINT RightHandMiddle3
										{
											OFFSET -0.029191 0.000000 0.000000 
											CHANNELS 3 Zrotation Xrotation Yrotation
											End Site
											{
												OFFSET -0.017969 0.000000 0.000000 
											}
										}
									}
								}
								JOINT RightHandRing1
								{
									OFFSET -0.081798 0.003030 -0.015127 
									CHANNELS 3 Zrotation Xrotation Yrotation
									JOINT RightHandRing2
									{
										OFFSET -0.042198 0.000000 0.000000 
										CHANNELS 3 Zrotation Xrotation Yrotation
										JOINT RightHandRing3
										{
											OFFSET -0.026497 0.000000 0.000000 
											CHANNELS 3 Zrotation Xrotation Yrotation
											End Site
											{
												OFFSET -0.017188 0.000000 0.000000 
											}
										}
									}
								}
								JOINT RightHandPinky1
								{
									OFFSET -0.077902 -0.000930 -0.030891 
									CHANNELS 3 Zrotation Xrotation Yrotation
									JOINT RightHandPinky2
									{
										OFFSET -0.028538 0.000000 0.000000 
										CHANNELS 3 Zrotation Xrotation Yrotation
										JOINT RightHandPinky3
										{
											OFFSET -0.021734 0.000000 0.000000 
											CHANNELS 3 Zrotation Xrotation Yrotation
											End Site
											{
												OFFSET -0.022656 0.000000 0.000000 
											}
										}
									}
								}
							}
						}
					}
				}
			}
		}
	}
	JOINT LeftUpLeg
	{
		OFFSET 0.075264 -0.025573 0.000000 
		CHANNELS 3 Xrotation Yrotation Zrotation
		JOINT LeftLeg
		{
			OFFSET 0.000000 -0.326016 -0.013516 
			CHANNELS 3 Xrotation Yrotation Zrotation
			JOINT LeftFoot
			{
				OFFSET 0.000098 -0.306172 -0.006623 
				CHANNELS 3 Xrotation Yrotation Zrotation
				JOINT LeftToeBase
				{
					OFFSET -0.001432 -0.095259 0.064705 
					CHANNELS 3 Xrotation Yrotation Zrotation
					End Site
					{
						OFFSET 0.000000 0.000000 0.079438 
					}
				}
			}
		}
	}
	JOINT RightUpLeg
	{
		OFFSET -0.075264 -0.025573 0.000000 
		CHANNELS 3 Xrotation Yrotation Zrotation
		JOINT RightLeg
		{
			OFFSET 0.000000 -0.326016 -0.013516 
			CHANNELS 3 Xrotation Yrotation Zrotation
			JOINT RightFoot
			{
				OFFSET 0.000098 -0.306172 -0.006623 
				CHANNELS 3 Xrotation Yrotation Zrotation
				JOINT RightToeBase
				{
					OFFSET -0.001432 -0.095259 0.064705 
					CHANNELS 3 Xrotation Yrotation Zrotation
					End Site
					{
						OFFSET 0.000025 0.000000 0.079438 
					}
				}
			}
		}
	}
}
MOTION
Frames: 6
Frame Time: 0.033333
-0.166113 0.674059 1.148966 -15.776700 4.076300 9.492200 13.545900 -17.967400 2.367400 0.591900 -4.924100 -0.646900 0.660300 -4.879000 -0.617500 -7.444800 -0.438000 -1.466300 -0.000000 0.000000 -0.000000 -18.458000 -6.675000 2.063000 -15.254600 4.200000 -8.839100 -31.334200 12.187600 -28.689699 0.000000 0.000000 -98.198997 4.976100 1.016000 -4.071600 16.553101 -0.033800 5.332700 -13.528800 9.961100 2.008200 29.633200 -22.515301 -17.901699 -57.947701 0.007800 -1.117000 -70.101997 0.009900 -0.014100 -61.457802 0.007800 -0.013200 -58.052399 4.544300 -6.200200 -69.892197 0.009900 -0.014100 -58.490700 0.007200 -0.012800 -64.731796 0.009400 0.547300 -74.839401 0.011100 -0.014500 -74.312599 0.011000 -0.014500 -62.976700 -6.004300 -6.991600 -72.111099 0.010400 -0.014300 -69.195099 0.009700 -0.014100 8.378300 0.897200 -2.676300 68.924004 13.560300 -46.882301 0.000000 -0.000000 21.222099 14.329600 12.446000 11.044500 -8.953400 2.331600 -6.719100 3.170800 8.914100 3.754300 -8.127500 -21.977800 14.501200 45.792000 4.761400 6.297500 82.636803 0.006900 0.007800 64.522697 0.004500 0.007100 57.897499 0.004000 1.491100 74.641197 0.005800 0.007600 60.963299 0.004100 0.006900 65.948997 0.005000 -2.821100 76.534401 0.006100 0.007700 57.671700 0.003700 0.006700 70.123199 -14.984500 -1.337900 74.418404 0.005800 0.007600 63.129601 0.004300 0.007000 1.648600 4.762800 10.219100 31.161301 -5.344300 3.487800 -6.967000 -16.124901 -3.512900 -21.484200 0.025000 -1.817000 -65.773804 -3.825000 8.476100 127.618401 4.086700 0.173200 22.875700 -1.368800 5.178900 9.939400 -0.000000 0.000000 
-0.206361 0.691477 1.232877 -20.374599 5.069600 7.484900 13.978900 -19.198000 4.955800 -0.214900 -5.381700 -0.183000 -0.146900 -5.352200 -0.117400 -8.024100 0.092400 -1.361800 -0.000000 0.000000 -0.000000 -18.021000 -3.753500 2.128200 -14.601800 3.671800 -5.872800 -28.354401 9.651400 -31.497400 0.000000 -0.000000 -110.498802 8.225300 5.911200 0.368200 16.553101 -0.033800 5.332700 -14.464400 9.998900 3.896600 27.649700 -22.560200 -16.890301 -58.333801 0.007900 -0.949600 -70.607597 0.010000 -0.014200 -60.829899 0.007700 -0.013100 -59.402199 4.526100 -6.103300 -70.429703 0.010000 -0.014200 -58.488300 0.007200 -0.012800 -64.568604 0.009400 0.590200 -74.770897 0.011100 -0.014500 -74.427200 0.011000 -0.014500 -62.738400 -6.044400 -6.907000 -72.041100 0.010400 -0.014300 -69.301903 0.009700 -0.014100 7.275100 1.124700 -1.064200 69.054298 15.510500 -52.409599 -0.000000 0.000000 24.332300 16.526400 12.990700 8.114800 -8.953400 2.331600 -6.719200 2.903600 8.754700 4.342400 -8.731900 -21.873600 14.695200 47.391499 4.663100 6.233100 82.343102 0.006900 0.007800 65.137100 0.004600 0.007200 58.522499 0.004100 1.735800 73.986099 0.005700 0.007600 61.064899 0.004100 0.006900 66.008400 0.005000 -2.035500 75.562599 0.005900 0.007700 57.034199 0.003600 0.006600 67.891998 -14.994700 -0.877700 73.068001 0.005600 0.007600 62.072399 0.004200 0.007000 12.982200 10.013600 11.700300 16.182899 -4.973300 1.304400 16.353300 -17.035900 -2.398400 -17.058001 0.000000 -0.000000 -71.286003 -4.260800 12.569100 113.062401 3.004600 0.333700 19.257299 -2.545900 3.488500 7.684900 0.000000 0.000000 
-0.247770 0.710175 1.314826 -24.503500 6.800200 6.938100 12.988900 -19.940800 5.700400 -0.852300 -5.616000 0.238800 -0.781300 -5.600200 0.328000 -8.494100 0.515600 -1.578300 -0.000000 0.000000 -0.000000 -17.877100 -1.824100 1.615700 -16.022600 3.443900 -3.480100 -24.849400 5.419700 -33.156399 0.000000 0.000000 -118.841698 13.397500 8.970900 5.681900 16.553101 -0.033800 5.332700 -14.532200 10.001400 4.031100 26.835699 -22.584299 -16.262600 -56.537998 0.007500 -0.744000 -69.580399 0.009800 -0.014100 -61.025200 0.007800 -0.013200 -56.973099 4.526200 -6.111600 -70.563698 0.010000 -0.014200 -58.940601 0.007300 -0.012900 -62.540401 0.008900 0.917800 -73.369102 0.010700 -0.014400 -74.449402 0.011000 -0.014500 -61.391399 -6.256400 -6.425400 -71.270599 0.010200 -0.014200 -68.919998 0.009600 -0.014000 8.048500 1.185000 -0.632200 67.719299 18.751801 -53.729301 0.000000 -0.000000 25.466200 18.887100 13.848200 7.345200 -8.953400 2.331600 -6.719100 2.679300 8.627200 4.827500 -9.210500 -21.515499 15.014500 48.134998 4.645300 6.228100 81.875198 0.006800 0.007800 65.418198 0.004600 0.007200 59.284302 0.004200 1.834300 73.946198 0.005700 0.007600 61.358601 0.004100 0.006900 66.409302 0.005100 -1.769600 75.364502 0.005900 0.007600 57.101101 0.003600 0.006600 67.372299 -14.994800 -0.336300 72.484703 0.005500 0.007500 61.738701 0.004200 0.007000 17.387501 11.187300 11.077100 15.475300 -2.119500 -0.409600 25.852100 -14.665100 -1.991300 -5.451200 0.000000 -0.000000 -72.359802 -3.344600 14.018500 94.006500 2.096100 1.019900 20.141701 -2.155700 4.274800 4.857600 -0.000000 -0.000000 
-0.293032 0.730905 1.399155 -27.264099 8.012600 7.569200 10.682600 -20.222799 5.015600 -0.802000 -5.667200 0.352500 -0.731700 -5.656600 0.420200 -8.666200 0.716200 -1.955500 -0.000000 0.000000 -0.000000 -17.827999 -1.220500 0.887600 -17.559500 3.495000 -2.802100 -22.705900 2.750600 -32.897400 -0.000000 -0.000000 -121.891296 16.746700 9.391600 8.032800 16.553101 -0.033800 5.332700 -14.155600 9.996000 3.270300 26.664400 -22.581400 -15.908700 -53.898701 0.006900 -0.527200 -67.600098 0.009300 -0.013900 -61.534901 0.007900 -0.013200 -53.278702 4.539800 -6.194100 -70.095299 0.009900 -0.014100 -59.563702 0.007400 -0.013000 -59.684799 0.008200 1.383300 -71.262299 0.010200 -0.014200 -74.264099 0.011000 -0.014500 -59.494400 -6.510700 -5.839500 -70.053596 0.009900 -0.014100 -68.069603 0.009400 -0.013900 9.610300 0.984800 -2.027000 66.306396 21.221800 -51.922600 0.000000 0.000000 24.688900 20.384100 14.633700 8.198900 -8.953400 2.331600 -6.719100 2.075200 8.323400 6.180300 -9.565100 -21.002899 15.514000 47.053902 4.717400 6.287500 80.125702 0.006600 0.007800 65.383797 0.004600 0.007200 58.936298 0.004100 1.913000 73.829697 0.005700 0.007600 61.005501 0.004100 0.006900 65.896896 0.005000 -1.832400 75.186501 0.005900 0.007600 56.970299 0.003600 0.006600 65.809196 -14.993700 -0.142900 72.419502 0.005500 0.007500 61.725800 0.004200 0.007000 21.707500 8.992300 8.478800 19.281000 3.166400 -0.887600 23.466400 -11.721700 1.093600 5.837000 0.000000 -0.000000 -67.531700 -3.002700 12.683800 71.654800 1.321200 2.535700 18.555099 -2.551800 2.669700 3.067000 -0.000000 0.000000 
-0.340923 0.746668 1.485844 -29.149599 7.626100 8.356400 8.663500 -19.738600 4.187900 -0.207000 -5.512700 0.147500 -0.145300 -5.499700 0.169800 -8.465300 0.697700 -2.335400 -0.000000 0.000000 -0.000000 -17.534599 -1.596300 0.112400 -17.998899 3.669800 -3.447500 -23.025600 3.649100 -30.316799 0.000000 0.000000 -119.813904 15.330300 9.489800 6.228300 16.553101 -0.033900 5.332700 -13.717000 9.970500 2.372400 26.368601 -22.601400 -15.447900 -52.084000 0.006500 -0.344000 -65.402901 0.008800 -0.013700 -61.917801 0.008000 -0.013300 -51.404099 4.566100 -6.342800 -68.945198 0.009600 -0.014000 -60.106899 0.007500 -0.013000 -57.377998 0.007700 1.802800 -68.980202 0.009600 -0.014000 -73.933701 0.010900 -0.014400 -57.888199 -6.668400 -5.465100 -68.700500 0.009600 -0.014000 -67.059700 0.009200 -0.013900 11.009000 0.679600 -4.049500 65.524399 21.414700 -48.332699 -0.000000 0.000000 22.284800 21.100300 14.889000 9.157100 -8.953400 2.331600 -6.719200 1.193700 7.834600 8.227400 -9.733200 -20.465300 16.042101 45.819099 4.824500 6.371300 78.160599 0.006300 0.007700 65.299896 0.004600 0.007200 58.164700 0.004000 2.144100 73.206100 0.005600 0.007600 60.112202 0.004000 0.006900 64.936798 0.004900 -1.880000 74.417900 0.005800 0.007600 56.348801 0.003500 0.006600 63.566799 -14.988000 -0.203000 72.526100 0.005500 0.007500 61.655102 0.004200 0.007000 25.300200 5.783300 6.109600 26.783701 7.440600 -0.699900 22.592800 -11.141300 1.107200 12.150200 -0.000000 0.000000 -57.373501 -3.962200 10.482100 47.205601 1.787600 4.847400 14.456500 -3.001000 2.517600 2.445100 0.000000 -0.000000 
-0.387831 0.750505 1.570966 -30.897900 6.083500 8.777800 7.830500 -18.626301 3.834900 0.343500 -5.201100 -0.079900 0.395400 -5.184600 -0.081800 -7.966200 0.606400 -2.758000 -0.000000 0.000000 -0.000000 -16.809700 -2.285100 -0.827100 -18.474800 3.898100 -4.300300 -24.799801 7.443200 -26.317301 -0.000000 0.000000 -114.497200 10.930300 10.938000 3.702600 16.553101 -0.033900 5.332700 -13.388900 9.941600 1.693500 26.204500 -22.620199 -15.130200 -51.838299 0.006400 -0.378900 -63.177601 0.008200 -0.013400 -62.162899 0.008000 -0.013300 -52.337299 4.598500 -6.529600 -67.306999 0.009200 -0.013900 -60.254200 0.007600 -0.013100 -56.462898 0.007500 2.090600 -66.700798 0.009100 -0.013800 -73.859703 0.010800 -0.014400 -57.326000 -6.681600 -5.421000 -67.336700 0.009200 -0.013900 -66.526199 0.009000 -0.013800 11.999900 0.506400 -5.083200 65.777496 19.760000 -44.629501 -0.000000 -0.000000 19.699100 21.183800 15.363200 9.028900 -8.953400 2.331600 -6.719200 0.654400 7.510000 9.521500 -10.089100 -20.125500 16.392099 45.316799 4.937100 6.456300 77.115700 0.006100 0.007700 65.440300 0.004600 0.007200 57.702499 0.004000 2.468900 72.327797 0.005500 0.007500 59.684299 0.003900 0.006800 64.779404 0.004900 -1.886700 73.052101 0.005600 0.007600 56.030399 0.003500 0.006600 64.584503 -14.991100 0.001100 72.036102 0.005500 0.007500 61.498402 0.004100 0.006900 24.102100 3.605200 5.109000 44.348701 6.120600 -0.646000 18.561399 -11.707800 -0.189100 14.569800 -0.000000 0.000000 -42.730202 -4.591800 9.613800 18.742201 -0.209000 6.903500 16.511700 -3.155800 3.716800 2.750200 -0.000000 0.000000 
